<svg xmlns="http://www.w3.org/2000/svg" version="1.1" xmlns:xlink="http://www.w3.org/1999/xlink" xmlns:svgjs="http://svgjs.dev/svgjs" width="1000" height="1000" viewBox="0 0 1000 1000"><rect width="1000" height="1000" fill="#ffffff"></rect><g transform="matrix(0.7,0,0,0.7,149.57575757575756,404.0563422146373)"><svg viewBox="0 0 396 109" data-background-color="#ffffff" preserveAspectRatio="xMidYMid meet" height="275" width="1000" xmlns="http://www.w3.org/2000/svg" xmlns:xlink="http://www.w3.org/1999/xlink"><g id="tight-bounds" transform="matrix(1,0,0,1,0.2400000000000091,-0.17346130595046816)"><svg viewBox="0 0 395.52 109.34692261190091" height="109.34692261190091" width="395.52"><g><svg viewBox="0 0 395.52 109.34692261190091" height="109.34692261190091" width="395.52"><g transform="matrix(1,0,0,1,0,67.58078495512513)"><svg viewBox="0 0 395.52 41.766137656775776" height="41.766137656775776" width="395.52"><g id="textblocktransform"><svg viewBox="0 0 395.52 41.766137656775776" height="41.766137656775776" width="395.52" id="textblock"><g><svg viewBox="0 0 395.52 41.766137656775776" height="41.766137656775776" width="395.52"><g transform="matrix(1,0,0,1,0,0)"><svg width="395.52" viewBox="3.049999952316284 -31.399999618530273 408.59002685546875 43.150001525878906" height="41.766137656775776" data-palette-color="#093d65"><path d="M13.65 0.6L13.65 0.6Q10.18 0.6 7.85-0.39 5.53-1.38 4.33-3.11 3.13-4.85 3.05-7.1L3.05-7.1 6.8-7.1Q6.93-4.83 8.64-3.69 10.35-2.55 13.3-2.55L13.3-2.55Q14.85-2.55 16.15-3.05 17.45-3.55 18.23-4.42 19-5.3 19-6.4L19-6.4Q19-7.8 17.98-8.6 16.95-9.4 14.7-10L14.7-10 10.05-11.5Q7.03-12.45 5.41-14.11 3.8-15.78 3.8-18.1L3.8-18.1Q3.8-21 6.35-22.75 8.9-24.5 13.05-24.5L13.05-24.5Q17.45-24.5 19.88-22.7 22.3-20.9 22.4-18.2L22.4-18.2 18.55-18.2Q18.32-19.78 16.95-20.59 15.58-21.4 13.05-21.4L13.05-21.4Q10.63-21.4 9.26-20.31 7.9-19.23 7.9-17.9L7.9-17.9Q7.9-15.43 12.15-14.25L12.15-14.25 16.9-12.65Q19.98-11.73 21.61-10.23 23.25-8.72 23.25-6.4L23.25-6.4Q23.25-4.6 22.08-3 20.9-1.4 18.75-0.4 16.6 0.6 13.65 0.6ZM42.17 0.6L42.17 0.6Q39.55 0.6 37.61-0.6 35.67-1.8 34.62-4.11 33.57-6.43 33.57-9.75L33.57-9.75 35.22-9.75Q35.22-7.53 36.15-6 37.07-4.48 38.56-3.69 40.05-2.9 41.72-2.9L41.72-2.9Q43.52-2.9 45.17-3.94 46.82-4.98 47.87-7 48.92-9.03 48.92-12L48.92-12Q48.92-14.85 47.96-16.88 47-18.9 45.37-19.98 43.75-21.05 41.77-21.05L41.77-21.05Q40.07-21.05 38.57-20.23 37.07-19.4 36.15-17.81 35.22-16.23 35.22-13.9L35.22-13.9 33.57-13.9Q33.57-17.38 34.72-19.74 35.87-22.1 37.85-23.3 39.82-24.5 42.27-24.5L42.27-24.5Q45.07-24.5 47.5-23 49.92-21.5 51.42-18.7 52.92-15.9 52.92-12L52.92-12Q52.92-8.05 51.41-5.23 49.9-2.4 47.45-0.9 45 0.6 42.17 0.6ZM35.22 11.75L31.32 11.75 31.32-23.9 34.57-23.9 35.22-18.3 35.22 11.75ZM78.75 0L75.34 0 74.84-5.25 74.84-15.5Q74.84-18.73 73.47-20.14 72.09-21.55 69.34-21.55L69.34-21.55Q67.8-21.55 66.53-21.1 65.27-20.65 64.53-19.71 63.8-18.78 63.8-17.3L63.8-17.3 59.45-17.3Q59.45-19.9 60.72-21.49 62-23.08 64.23-23.79 66.47-24.5 69.34-24.5L69.34-24.5Q72.09-24.5 74.22-23.58 76.34-22.65 77.55-20.64 78.75-18.63 78.75-15.4L78.75-15.4 78.75 0ZM67.2 0.6L67.2 0.6Q64.25 0.6 62.32-0.45 60.4-1.5 59.45-3.18 58.5-4.85 58.5-6.7L58.5-6.7Q58.5-9.13 59.71-10.65 60.92-12.18 63.02-12.89 65.12-13.6 67.75-13.6L67.75-13.6Q69.62-13.6 71.51-13.23 73.4-12.85 75.2-12.2L75.2-12.2 75.2-9.75Q73.7-10.35 71.81-10.7 69.92-11.05 68.34-11.05L68.34-11.05Q65.95-11.05 64.3-10.06 62.65-9.08 62.65-6.7L62.65-6.7Q62.65-4.95 63.91-3.7 65.17-2.45 67.95-2.45L67.95-2.45Q69.9-2.45 71.46-3.36 73.02-4.28 73.93-5.65 74.84-7.03 74.84-8.4L74.84-8.4 75.8-8.4Q75.8-6 74.76-3.95 73.72-1.9 71.8-0.65 69.87 0.6 67.2 0.6ZM96.47 0.6L96.47 0.6Q93.59 0.6 91.11-0.95 88.62-2.5 87.09-5.33 85.57-8.15 85.57-12L85.57-12Q85.57-15.95 87.09-18.75 88.62-21.55 91.11-23.03 93.59-24.5 96.47-24.5L96.47-24.5Q98.49-24.5 100.11-23.89 101.72-23.28 102.92-22.2 104.12-21.13 104.91-19.76 105.69-18.4 106.07-16.9L106.07-16.9 102.07-16.55Q101.44-18.63 99.98-19.84 98.52-21.05 96.42-21.05L96.42-21.05Q94.64-21.05 93.08-20.04 91.52-19.03 90.54-17.01 89.57-15 89.57-12L89.57-12Q89.57-9.22 90.46-7.19 91.34-5.15 92.89-4.03 94.44-2.9 96.42-2.9L96.42-2.9Q99.19-2.9 100.63-4.26 102.07-5.63 102.07-8.05L102.07-8.05 106.07-8.05Q106.07-5.55 104.89-3.6 103.72-1.65 101.56-0.53 99.39 0.6 96.47 0.6ZM122.17 0.6L122.17 0.6Q119.07 0.6 116.63-0.99 114.19-2.58 112.78-5.4 111.37-8.22 111.37-11.9L111.37-11.9Q111.37-15.83 112.77-18.65 114.17-21.48 116.6-22.99 119.04-24.5 122.17-24.5L122.17-24.5Q124.89-24.5 126.82-23.4 128.74-22.3 129.92-20.43 131.09-18.55 131.55-16.19 132.02-13.83 131.81-11.3L131.81-11.3 114.52-11.3 114.52-13.7 129.24-13.7 128.09-12.95Q128.17-14.43 127.93-15.9 127.69-17.38 127.04-18.61 126.39-19.85 125.22-20.6 124.04-21.35 122.22-21.35L122.22-21.35Q119.92-21.35 118.37-20.18 116.82-19 116.04-17.09 115.27-15.18 115.27-12.95L115.27-12.95 115.27-11.35Q115.27-8.85 116.03-6.88 116.79-4.9 118.32-3.75 119.84-2.6 122.17-2.6L122.17-2.6Q124.49-2.6 125.99-3.73 127.49-4.85 127.82-7.05L127.82-7.05 131.87-7.05Q131.49-4.67 130.17-2.96 128.84-1.25 126.79-0.33 124.74 0.6 122.17 0.6ZM177.04 0L173.14 0 173.14-14.05Q173.14-17.48 171.5-19.26 169.86-21.05 167.09-21.05L167.09-21.05Q163.84-21.05 162.11-18.54 160.39-16.03 160.39-11.6L160.39-11.6 158.59-11.6Q158.59-14.83 159.23-17.25 159.86-19.68 161.09-21.29 162.31-22.9 164.06-23.7 165.81-24.5 168.04-24.5L168.04-24.5Q170.86-24.5 172.88-23.24 174.89-21.98 175.96-19.63 177.04-17.28 177.04-14.05L177.04-14.05 177.04 0ZM143.44 0L139.54 0 139.54-23.9 142.89-23.9 143.34-19.1Q144.46-21.7 146.5-23.1 148.54-24.5 151.39-24.5L151.39-24.5Q154.21-24.5 156.23-23.24 158.24-21.98 159.31-19.63 160.39-17.28 160.39-14.05L160.39-14.05 160.39 0 156.54 0 156.54-14.05Q156.54-17.48 154.9-19.26 153.26-21.05 150.44-21.05L150.44-21.05Q148.29-21.05 146.71-19.88 145.14-18.7 144.29-16.51 143.44-14.33 143.44-11.3L143.44-11.3 143.44 0ZM204.51 0L201.11 0 200.61-5.25 200.61-15.5Q200.61-18.73 199.24-20.14 197.86-21.55 195.11-21.55L195.11-21.55Q193.56-21.55 192.3-21.1 191.04-20.65 190.3-19.71 189.56-18.78 189.56-17.3L189.56-17.3 185.21-17.3Q185.21-19.9 186.49-21.49 187.76-23.08 190-23.79 192.24-24.5 195.11-24.5L195.11-24.5Q197.86-24.5 199.99-23.58 202.11-22.65 203.31-20.64 204.51-18.63 204.51-15.4L204.51-15.4 204.51 0ZM192.96 0.6L192.96 0.6Q190.01 0.6 188.09-0.45 186.16-1.5 185.21-3.18 184.26-4.85 184.26-6.7L184.26-6.7Q184.26-9.13 185.47-10.65 186.69-12.18 188.79-12.89 190.89-13.6 193.51-13.6L193.51-13.6Q195.39-13.6 197.27-13.23 199.16-12.85 200.96-12.2L200.96-12.2 200.96-9.75Q199.46-10.35 197.57-10.7 195.69-11.05 194.11-11.05L194.11-11.05Q191.71-11.05 190.06-10.06 188.41-9.08 188.41-6.7L188.41-6.7Q188.41-4.95 189.67-3.7 190.94-2.45 193.71-2.45L193.71-2.45Q195.66-2.45 197.22-3.36 198.79-4.28 199.7-5.65 200.61-7.03 200.61-8.4L200.61-8.4 201.56-8.4Q201.56-6 200.52-3.95 199.49-1.9 197.56-0.65 195.64 0.6 192.96 0.6ZM234.68 0L230.83 0 230.83-14.05Q230.83-17.48 229.2-19.26 227.56-21.05 224.73-21.05L224.73-21.05Q222.58-21.05 221.01-19.88 219.43-18.7 218.58-16.51 217.73-14.33 217.73-11.3L217.73-11.3 216.23-11.3Q216.23-15.48 217.33-18.43 218.43-21.38 220.55-22.94 222.66-24.5 225.68-24.5L225.68-24.5Q228.51-24.5 230.52-23.24 232.53-21.98 233.61-19.63 234.68-17.28 234.68-14.05L234.68-14.05 234.68 0ZM217.73 0L213.83 0 213.83-23.9 217.18-23.9 217.73-18.4 217.73 0ZM259.78 0L255.88 0 255.88-31.4 259.78-31.4 259.78 0ZM276.25-28.05L265.13-28.05 265.13-31.4 289.58-31.4 289.58-28.05 278.4-28.05 279.28-28.95 279.28 0 275.38 0 275.38-28.95 276.25-28.05ZM344.27 0L340.37 0 340.37-14.05Q340.37-17.48 338.73-19.26 337.1-21.05 334.32-21.05L334.32-21.05Q331.07-21.05 329.35-18.54 327.62-16.03 327.62-11.6L327.62-11.6 325.82-11.6Q325.82-14.83 326.46-17.25 327.1-19.68 328.32-21.29 329.55-22.9 331.3-23.7 333.05-24.5 335.27-24.5L335.27-24.5Q338.1-24.5 340.11-23.24 342.12-21.98 343.2-19.63 344.27-17.28 344.27-14.05L344.27-14.05 344.27 0ZM310.67 0L306.77 0 306.77-23.9 310.12-23.9 310.57-19.1Q311.7-21.7 313.73-23.1 315.77-24.5 318.62-24.5L318.62-24.5Q321.45-24.5 323.46-23.24 325.47-21.98 326.55-19.63 327.62-17.28 327.62-14.05L327.62-14.05 327.62 0 323.77 0 323.77-14.05Q323.77-17.48 322.13-19.26 320.5-21.05 317.67-21.05L317.67-21.05Q315.52-21.05 313.95-19.88 312.37-18.7 311.52-16.51 310.67-14.33 310.67-11.3L310.67-11.3 310.67 0ZM371.74 0L368.34 0 367.84-5.25 367.84-15.5Q367.84-18.73 366.47-20.14 365.09-21.55 362.34-21.55L362.34-21.55Q360.79-21.55 359.53-21.1 358.27-20.65 357.53-19.71 356.79-18.78 356.79-17.3L356.79-17.3 352.44-17.3Q352.44-19.9 353.72-21.49 354.99-23.08 357.23-23.79 359.47-24.5 362.34-24.5L362.34-24.5Q365.09-24.5 367.22-23.58 369.34-22.65 370.54-20.64 371.74-18.63 371.74-15.4L371.74-15.4 371.74 0ZM360.19 0.6L360.19 0.6Q357.24 0.6 355.32-0.45 353.39-1.5 352.44-3.18 351.49-4.85 351.49-6.7L351.49-6.7Q351.49-9.13 352.7-10.65 353.92-12.18 356.02-12.89 358.12-13.6 360.74-13.6L360.74-13.6Q362.62-13.6 364.5-13.23 366.39-12.85 368.19-12.2L368.19-12.2 368.19-9.75Q366.69-10.35 364.81-10.7 362.92-11.05 361.34-11.05L361.34-11.05Q358.94-11.05 357.29-10.06 355.64-9.08 355.64-6.7L355.64-6.7Q355.64-4.95 356.91-3.7 358.17-2.45 360.94-2.45L360.94-2.45Q362.89-2.45 364.45-3.36 366.02-4.28 366.93-5.65 367.84-7.03 367.84-8.4L367.84-8.4 368.79-8.4Q368.79-6 367.75-3.95 366.72-1.9 364.79-0.65 362.87 0.6 360.19 0.6ZM384.96 0L381.06 0 381.06-23.95 384.96-23.95 384.96 0ZM384.96-10.8L383.76-10.8Q383.76-15.35 384.64-18.36 385.51-21.38 387.2-22.86 388.89-24.35 391.31-24.35L391.31-24.35Q392.12-24.35 392.78-24.24 393.44-24.13 394.12-23.9L394.12-23.9 393.87-20.05Q393.16-20.28 392.34-20.44 391.51-20.6 390.87-20.6L390.87-20.6Q388.74-20.6 387.44-19.39 386.14-18.18 385.55-15.98 384.96-13.78 384.96-10.8L384.96-10.8ZM406.49 0.6L406.49 0.6Q404.54 0.6 402.99-0.15 401.44-0.9 400.54-2.4 399.64-3.9 399.64-6.15L399.64-6.15 399.64-30.55 403.49-30.55 403.49-6.25Q403.49-2.55 406.94-2.55L406.94-2.55Q407.96-2.55 408.92-2.78 409.89-3 411.09-3.45L411.09-3.45 411.64-0.65Q410.36-0.1 409.1 0.25 407.84 0.6 406.49 0.6ZM411.04-21.2L395.79-21.2 395.79-23.9 411.04-23.9 411.04-21.2Z" opacity="1" transform="matrix(1,0,0,1,0,0)" fill="#093d65" class="undefined-text-0" data-fill-palette-color="primary" id="text-0"></path></svg></g></svg></g></svg></g></svg></g><g transform="matrix(1,0,0,1,168.89959887916794,0)"><svg viewBox="0 0 57.72080224166412 57.720802241664124" height="57.720802241664124" width="57.72080224166412"><g><svg></svg></g><g id="icon-0"><svg viewBox="0 0 57.72080224166412 57.720802241664124" height="57.720802241664124" width="57.72080224166412"><g><path xmlns="http://www.w3.org/2000/svg" d="M17.316 57.721c-9.563 0-17.316-7.753-17.316-17.316v-23.089c0-9.563 7.753-17.316 17.316-17.316h23.089c9.563 0 17.316 7.753 17.316 17.316v23.089c0 9.563-7.753 17.316-17.316 17.316z" fill="#f98e54" fill-rule="nonzero" stroke="none" stroke-width="1" stroke-linecap="butt" stroke-linejoin="miter" stroke-miterlimit="10" stroke-dasharray="" stroke-dashoffset="0" font-family="none" font-weight="none" font-size="none" text-anchor="none" style="mix-blend-mode: normal" data-fill-palette-color="accent"></path></g><g transform="matrix(1,0,0,1,11.544160448332821,11.544160448332825)"><svg viewBox="0 0 34.632481344998475 34.632481344998475" height="34.632481344998475" width="34.632481344998475"><g><svg xmlns="http://www.w3.org/2000/svg" xmlns:xlink="http://www.w3.org/1999/xlink" version="1.1" x="0" y="0" viewBox="14.189000129699707 14.189000129699707 71.62199401855469 71.62199401855469" enable-background="new 0 0 100 100" xml:space="preserve" height="34.632481344998475" width="34.632481344998475" class="icon-s-0" data-fill-palette-color="quaternary" id="s-0"><g fill="#ffffff" data-fill-palette-color="quaternary"><path d="M77.284 74.943c0 1.293-1.047 2.341-2.342 2.341H25.057c-1.292 0-2.34-1.048-2.34-2.341V25.056c0-1.292 1.048-2.34 2.34-2.34h49.885c1.295 0 2.342 1.048 2.342 2.34V74.943z" fill="#ffffff" data-fill-palette-color="quaternary"></path><g fill="#ffffff" data-fill-palette-color="quaternary"><g fill="#ffffff" data-fill-palette-color="quaternary"><rect x="32.91" y="14.189" width="6.101" height="6.102" fill="#ffffff" data-fill-palette-color="quaternary"></rect><rect x="42.269" y="14.189" width="6.101" height="6.102" fill="#ffffff" data-fill-palette-color="quaternary"></rect><rect x="51.63" y="14.189" width="6.101" height="6.102" fill="#ffffff" data-fill-palette-color="quaternary"></rect><rect x="60.989" y="14.189" width="6.101" height="6.102" fill="#ffffff" data-fill-palette-color="quaternary"></rect></g><g fill="#ffffff" data-fill-palette-color="quaternary"><rect x="32.91" y="79.709" width="6.101" height="6.102" fill="#ffffff" data-fill-palette-color="quaternary"></rect><rect x="42.269" y="79.709" width="6.101" height="6.102" fill="#ffffff" data-fill-palette-color="quaternary"></rect><rect x="51.63" y="79.709" width="6.101" height="6.102" fill="#ffffff" data-fill-palette-color="quaternary"></rect><rect x="60.989" y="79.709" width="6.101" height="6.102" fill="#ffffff" data-fill-palette-color="quaternary"></rect></g></g><g fill="#ffffff" data-fill-palette-color="quaternary"><g fill="#ffffff" data-fill-palette-color="quaternary"><rect x="79.708" y="32.91" width="6.103" height="6.101" fill="#ffffff" data-fill-palette-color="quaternary"></rect><rect x="79.708" y="42.269" width="6.103" height="6.102" fill="#ffffff" data-fill-palette-color="quaternary"></rect><rect x="79.708" y="51.629" width="6.103" height="6.102" fill="#ffffff" data-fill-palette-color="quaternary"></rect><rect x="79.708" y="60.989" width="6.103" height="6.101" fill="#ffffff" data-fill-palette-color="quaternary"></rect></g><g fill="#ffffff" data-fill-palette-color="quaternary"><rect x="14.189" y="32.91" width="6.102" height="6.101" fill="#ffffff" data-fill-palette-color="quaternary"></rect><rect x="14.189" y="42.269" width="6.102" height="6.102" fill="#ffffff" data-fill-palette-color="quaternary"></rect><rect x="14.189" y="51.629" width="6.102" height="6.102" fill="#ffffff" data-fill-palette-color="quaternary"></rect><rect x="14.189" y="60.989" width="6.102" height="6.101" fill="#ffffff" data-fill-palette-color="quaternary"></rect></g></g></g></svg></g></svg></g></svg></g></svg></g><g></g></svg></g><defs></defs></svg><rect width="395.52" height="109.34692261190091" fill="none" stroke="none" visibility="hidden"></rect></g></svg></g></svg>